<svg width="197" height="33" viewBox="0 0 197 33" fill="none" xmlns="http://www.w3.org/2000/svg">
<path d="M50.04 21.5C49.9067 21.5 49.7933 21.4533 49.7 21.36C49.6067 21.2667 49.56 21.1533 49.56 21.02V8C49.56 7.85333 49.6 7.73333 49.68 7.64C49.7733 7.54667 49.8933 7.5 50.04 7.5H54.92C58.84 7.5 60.84 9.31333 60.92 12.94C60.9467 13.7133 60.96 14.2333 60.96 14.5C60.96 14.7533 60.9467 15.2667 60.92 16.04C60.8667 17.9067 60.3667 19.2867 59.42 20.18C58.4733 21.06 57.0067 21.5 55.02 21.5H50.04ZM54.92 19.2C56.04 19.2 56.8467 18.9533 57.34 18.46C57.8333 17.9533 58.0933 17.1267 58.12 15.98C58.1467 15.18 58.16 14.68 58.16 14.48C58.16 14.2667 58.1467 13.7733 58.12 13C58.0933 11.9067 57.8133 11.1 57.28 10.58C56.76 10.06 55.94 9.8 54.82 9.8H52.34V19.2H54.92ZM63.7825 9.38C63.6492 9.38 63.5358 9.33333 63.4425 9.24C63.3492 9.14667 63.3025 9.03333 63.3025 8.9V7.46C63.3025 7.32667 63.3492 7.21333 63.4425 7.12C63.5358 7.02667 63.6492 6.98 63.7825 6.98H65.6025C65.7358 6.98 65.8492 7.02667 65.9425 7.12C66.0492 7.21333 66.1025 7.32667 66.1025 7.46V8.9C66.1025 9.03333 66.0558 9.14667 65.9625 9.24C65.8692 9.33333 65.7492 9.38 65.6025 9.38H63.7825ZM63.8625 21.5C63.7292 21.5 63.6158 21.4533 63.5225 21.36C63.4292 21.2667 63.3825 21.1533 63.3825 21.02V11.58C63.3825 11.4467 63.4292 11.3333 63.5225 11.24C63.6158 11.1467 63.7292 11.1 63.8625 11.1H65.5225C65.6692 11.1 65.7825 11.1467 65.8625 11.24C65.9558 11.32 66.0025 11.4333 66.0025 11.58V21.02C66.0025 21.1533 65.9558 21.2667 65.8625 21.36C65.7825 21.4533 65.6692 21.5 65.5225 21.5H63.8625ZM71.6759 21.7C70.9959 21.7 70.3693 21.5667 69.7959 21.3C69.2359 21.02 68.7893 20.6467 68.4559 20.18C68.1359 19.7133 67.9759 19.2 67.9759 18.64C67.9759 17.7333 68.3426 17 69.0759 16.44C69.8093 15.88 70.8159 15.5 72.0959 15.3L74.8359 14.9V14.48C74.8359 13.8933 74.6893 13.4533 74.3959 13.16C74.1026 12.8667 73.6293 12.72 72.9759 12.72C72.5359 12.72 72.1759 12.8067 71.8959 12.98C71.6293 13.14 71.4159 13.3 71.2559 13.46C71.0959 13.6333 70.9893 13.7467 70.9359 13.8C70.8826 13.96 70.7826 14.04 70.6359 14.04H69.0959C68.9759 14.04 68.8693 14 68.7759 13.92C68.6959 13.84 68.6559 13.7333 68.6559 13.6C68.6693 13.2667 68.8293 12.8867 69.1359 12.46C69.4559 12.0333 69.9426 11.6667 70.5959 11.36C71.2493 11.0533 72.0493 10.9 72.9959 10.9C74.5693 10.9 75.7159 11.2533 76.4359 11.96C77.1559 12.6667 77.5159 13.5933 77.5159 14.74V21.02C77.5159 21.1533 77.4693 21.2667 77.3759 21.36C77.2959 21.4533 77.1826 21.5 77.0359 21.5H75.4159C75.2826 21.5 75.1693 21.4533 75.0759 21.36C74.9826 21.2667 74.9359 21.1533 74.9359 21.02V20.24C74.6426 20.6667 74.2226 21.02 73.6759 21.3C73.1426 21.5667 72.4759 21.7 71.6759 21.7ZM72.3559 19.8C73.0893 19.8 73.6893 19.56 74.1559 19.08C74.6226 18.6 74.8559 17.9 74.8559 16.98V16.56L72.8559 16.88C72.0826 17 71.4959 17.1933 71.0959 17.46C70.7093 17.7267 70.5159 18.0533 70.5159 18.44C70.5159 18.8667 70.6959 19.2 71.0559 19.44C71.4159 19.68 71.8493 19.8 72.3559 19.8ZM80.5617 21.5C80.4284 21.5 80.3151 21.4533 80.2217 21.36C80.1284 21.2667 80.0817 21.1533 80.0817 21.02V11.58C80.0817 11.4467 80.1284 11.3333 80.2217 11.24C80.3151 11.1467 80.4284 11.1 80.5617 11.1H82.1217C82.2551 11.1 82.3684 11.1467 82.4617 11.24C82.5551 11.3333 82.6017 11.4467 82.6017 11.58V12.26C83.2951 11.3533 84.2617 10.9 85.5017 10.9C86.9817 10.9 88.0151 11.4933 88.6017 12.68C88.9217 12.1467 89.3751 11.72 89.9617 11.4C90.5484 11.0667 91.1817 10.9 91.8617 10.9C92.9551 10.9 93.8484 11.2733 94.5417 12.02C95.2351 12.7667 95.5817 13.8533 95.5817 15.28V21.02C95.5817 21.1533 95.5351 21.2667 95.4417 21.36C95.3617 21.4533 95.2484 21.5 95.1017 21.5H93.4617C93.3284 21.5 93.2151 21.4533 93.1217 21.36C93.0284 21.2667 92.9817 21.1533 92.9817 21.02V15.44C92.9817 14.6 92.8017 13.9933 92.4417 13.62C92.0951 13.2333 91.6284 13.04 91.0417 13.04C90.5217 13.04 90.0751 13.2333 89.7017 13.62C89.3417 14.0067 89.1617 14.6133 89.1617 15.44V21.02C89.1617 21.1533 89.1151 21.2667 89.0217 21.36C88.9284 21.4533 88.8151 21.5 88.6817 21.5H87.0417C86.9084 21.5 86.7951 21.4533 86.7017 21.36C86.6084 21.2667 86.5617 21.1533 86.5617 21.02V15.44C86.5617 14.6 86.3751 13.9933 86.0017 13.62C85.6417 13.2333 85.1817 13.04 84.6217 13.04C84.0884 13.04 83.6351 13.2333 83.2617 13.62C82.9017 14.0067 82.7217 14.6133 82.7217 15.44V21.02C82.7217 21.1533 82.6751 21.2667 82.5817 21.36C82.4884 21.4533 82.3751 21.5 82.2417 21.5H80.5617ZM102.729 21.7C101.169 21.7 99.9619 21.3 99.1086 20.5C98.2553 19.6867 97.7953 18.58 97.7286 17.18L97.7086 16.3L97.7286 15.42C97.7953 14.0333 98.2619 12.9333 99.1286 12.12C99.9953 11.3067 101.195 10.9 102.729 10.9C104.262 10.9 105.462 11.3067 106.329 12.12C107.195 12.9333 107.662 14.0333 107.729 15.42C107.742 15.58 107.749 15.8733 107.749 16.3C107.749 16.7267 107.742 17.02 107.729 17.18C107.662 18.58 107.202 19.6867 106.349 20.5C105.495 21.3 104.289 21.7 102.729 21.7ZM102.729 19.72C103.435 19.72 103.982 19.5 104.369 19.06C104.755 18.6067 104.969 17.9467 105.009 17.08C105.022 16.9467 105.029 16.6867 105.029 16.3C105.029 15.9133 105.022 15.6533 105.009 15.52C104.969 14.6533 104.755 14 104.369 13.56C103.982 13.1067 103.435 12.88 102.729 12.88C102.022 12.88 101.475 13.1067 101.089 13.56C100.702 14 100.489 14.6533 100.449 15.52L100.429 16.3L100.449 17.08C100.489 17.9467 100.702 18.6067 101.089 19.06C101.475 19.5 102.022 19.72 102.729 19.72ZM110.445 21.5C110.311 21.5 110.198 21.4533 110.105 21.36C110.011 21.2667 109.965 21.1533 109.965 21.02V11.58C109.965 11.4467 110.011 11.3333 110.105 11.24C110.198 11.1467 110.311 11.1 110.445 11.1H112.085C112.218 11.1 112.331 11.1467 112.425 11.24C112.518 11.3333 112.565 11.4467 112.565 11.58V12.4C113.351 11.4 114.465 10.9 115.905 10.9C117.131 10.9 118.105 11.3067 118.825 12.12C119.545 12.92 119.905 14.0133 119.905 15.4V21.02C119.905 21.1533 119.858 21.2667 119.765 21.36C119.685 21.4533 119.571 21.5 119.425 21.5H117.665C117.531 21.5 117.418 21.4533 117.325 21.36C117.231 21.2667 117.185 21.1533 117.185 21.02V15.52C117.185 14.7333 116.991 14.1267 116.605 13.7C116.231 13.26 115.685 13.04 114.965 13.04C114.258 13.04 113.698 13.26 113.285 13.7C112.885 14.14 112.685 14.7467 112.685 15.52V21.02C112.685 21.1533 112.638 21.2667 112.545 21.36C112.465 21.4533 112.351 21.5 112.205 21.5H110.445ZM126.305 21.7C124.958 21.7 123.925 21.2667 123.205 20.4C122.485 19.5333 122.098 18.38 122.045 16.94L122.025 16.28L122.045 15.64C122.085 14.24 122.465 13.1 123.185 12.22C123.918 11.34 124.958 10.9 126.305 10.9C127.598 10.9 128.625 11.34 129.385 12.22V7.78C129.385 7.63333 129.432 7.52 129.525 7.44C129.618 7.34667 129.732 7.3 129.865 7.3H131.565C131.712 7.3 131.825 7.34667 131.905 7.44C131.998 7.52 132.045 7.63333 132.045 7.78V21.02C132.045 21.1533 131.998 21.2667 131.905 21.36C131.825 21.4533 131.712 21.5 131.565 21.5H129.985C129.852 21.5 129.738 21.4533 129.645 21.36C129.552 21.2667 129.505 21.1533 129.505 21.02V20.28C128.745 21.2267 127.678 21.7 126.305 21.7ZM127.045 19.56C127.818 19.56 128.392 19.3133 128.765 18.82C129.138 18.3267 129.345 17.72 129.385 17C129.398 16.84 129.405 16.58 129.405 16.22C129.405 15.8733 129.398 15.62 129.385 15.46C129.358 14.7933 129.145 14.2267 128.745 13.76C128.358 13.28 127.792 13.04 127.045 13.04C125.605 13.04 124.838 13.9267 124.745 15.7L124.725 16.3L124.745 16.9C124.838 18.6733 125.605 19.56 127.045 19.56ZM135.291 21.5C135.144 21.5 135.024 21.4533 134.931 21.36C134.837 21.2667 134.791 21.1467 134.791 21V8C134.791 7.85333 134.837 7.73333 134.931 7.64C135.037 7.54667 135.157 7.5 135.291 7.5H137.871C138.017 7.5 138.137 7.54667 138.231 7.64C138.337 7.73333 138.391 7.85333 138.391 8V12.82H143.311V8C143.311 7.85333 143.357 7.73333 143.451 7.64C143.544 7.54667 143.664 7.5 143.811 7.5H146.391C146.537 7.5 146.657 7.54667 146.751 7.64C146.844 7.73333 146.891 7.85333 146.891 8V21C146.891 21.1467 146.844 21.2667 146.751 21.36C146.657 21.4533 146.537 21.5 146.391 21.5H143.811C143.664 21.5 143.544 21.4533 143.451 21.36C143.357 21.2667 143.311 21.1467 143.311 21V16.02H138.391V21C138.391 21.1467 138.337 21.2667 138.231 21.36C138.137 21.4533 138.017 21.5 137.871 21.5H135.291ZM152.593 21.7C151.886 21.7 151.24 21.5667 150.653 21.3C150.08 21.02 149.626 20.6467 149.293 20.18C148.973 19.7 148.813 19.1733 148.813 18.6C148.813 17.68 149.186 16.94 149.933 16.38C150.693 15.82 151.733 15.4333 153.053 15.22L155.553 14.84V14.56C155.553 14.0533 155.446 13.68 155.233 13.44C155.02 13.2 154.66 13.08 154.153 13.08C153.846 13.08 153.593 13.1333 153.393 13.24C153.193 13.3467 152.986 13.4933 152.773 13.68C152.586 13.84 152.446 13.9467 152.353 14C152.313 14.1067 152.24 14.16 152.133 14.16H149.953C149.82 14.16 149.706 14.12 149.613 14.04C149.533 13.9467 149.5 13.84 149.513 13.72C149.526 13.36 149.7 12.96 150.033 12.52C150.38 12.08 150.9 11.7 151.593 11.38C152.3 11.06 153.166 10.9 154.193 10.9C155.833 10.9 157.046 11.2667 157.833 12C158.62 12.72 159.013 13.6933 159.013 14.92V21C159.013 21.1333 158.966 21.2533 158.873 21.36C158.78 21.4533 158.66 21.5 158.513 21.5H156.193C156.06 21.5 155.94 21.4533 155.833 21.36C155.74 21.2533 155.693 21.1333 155.693 21V20.3C155.4 20.7133 154.986 21.0533 154.453 21.32C153.933 21.5733 153.313 21.7 152.593 21.7ZM153.533 19.42C154.146 19.42 154.64 19.22 155.013 18.82C155.4 18.42 155.593 17.8333 155.593 17.06V16.78L153.893 17.08C152.693 17.2933 152.093 17.7133 152.093 18.34C152.093 18.6733 152.233 18.94 152.513 19.14C152.793 19.3267 153.133 19.42 153.533 19.42ZM161.77 21.5C161.623 21.5 161.503 21.4533 161.41 21.36C161.317 21.2667 161.27 21.1467 161.27 21V11.6C161.27 11.4533 161.317 11.3333 161.41 11.24C161.503 11.1467 161.623 11.1 161.77 11.1H164.07C164.217 11.1 164.337 11.1467 164.43 11.24C164.537 11.3333 164.59 11.4533 164.59 11.6V12.36C164.95 11.92 165.41 11.5667 165.97 11.3C166.543 11.0333 167.19 10.9 167.91 10.9C169.083 10.9 170.037 11.3 170.77 12.1C171.503 12.8867 171.87 13.9933 171.87 15.42V21C171.87 21.1333 171.823 21.2533 171.73 21.36C171.637 21.4533 171.517 21.5 171.37 21.5H168.85C168.717 21.5 168.597 21.4533 168.49 21.36C168.397 21.2533 168.35 21.1333 168.35 21V15.54C168.35 14.9133 168.197 14.4333 167.89 14.1C167.583 13.7533 167.143 13.58 166.57 13.58C166.01 13.58 165.57 13.7533 165.25 14.1C164.93 14.4333 164.77 14.9133 164.77 15.54V21C164.77 21.1333 164.723 21.2533 164.63 21.36C164.537 21.4533 164.417 21.5 164.27 21.5H161.77ZM178.001 21.7C176.695 21.7 175.675 21.2933 174.941 20.48C174.221 19.6533 173.828 18.4933 173.761 17L173.741 16.3L173.761 15.58C173.815 14.14 174.208 13 174.941 12.16C175.688 11.32 176.708 10.9 178.001 10.9C179.215 10.9 180.195 11.2933 180.941 12.08V7.8C180.941 7.65333 180.988 7.53333 181.081 7.44C181.175 7.34667 181.295 7.3 181.441 7.3H183.881C184.028 7.3 184.148 7.34667 184.241 7.44C184.335 7.53333 184.381 7.65333 184.381 7.8V21C184.381 21.1333 184.335 21.2533 184.241 21.36C184.148 21.4533 184.028 21.5 183.881 21.5H181.621C181.488 21.5 181.368 21.4533 181.261 21.36C181.168 21.2533 181.121 21.1333 181.121 21V20.36C180.388 21.2533 179.348 21.7 178.001 21.7ZM179.101 19.02C179.701 19.02 180.148 18.8333 180.441 18.46C180.735 18.0733 180.901 17.58 180.941 16.98C180.955 16.8067 180.961 16.5533 180.961 16.22C180.961 15.9 180.955 15.6533 180.941 15.48C180.915 14.9333 180.748 14.48 180.441 14.12C180.135 13.76 179.688 13.58 179.101 13.58C178.475 13.58 178.021 13.7667 177.741 14.14C177.475 14.5133 177.321 15.0267 177.281 15.68C177.268 15.8133 177.261 16.02 177.261 16.3C177.261 16.58 177.268 16.7867 177.281 16.92C177.321 17.5733 177.475 18.0867 177.741 18.46C178.021 18.8333 178.475 19.02 179.101 19.02ZM191.019 21.7C189.939 21.7 189.032 21.5467 188.299 21.24C187.579 20.9333 187.045 20.5667 186.699 20.14C186.352 19.7133 186.179 19.3333 186.179 19C186.179 18.8667 186.225 18.76 186.319 18.68C186.425 18.5867 186.539 18.54 186.659 18.54H188.939C189.019 18.54 189.092 18.5733 189.159 18.64C189.319 18.7467 189.439 18.8333 189.519 18.9C189.812 19.1133 190.065 19.2733 190.279 19.38C190.505 19.4733 190.779 19.52 191.099 19.52C191.485 19.52 191.799 19.4467 192.039 19.3C192.292 19.14 192.419 18.92 192.419 18.64C192.419 18.4133 192.352 18.2333 192.219 18.1C192.099 17.9667 191.859 17.84 191.499 17.72C191.139 17.5867 190.592 17.4467 189.859 17.3C188.752 17.0733 187.899 16.7067 187.299 16.2C186.712 15.68 186.419 14.9867 186.419 14.12C186.419 13.5733 186.592 13.0533 186.939 12.56C187.285 12.0667 187.799 11.6667 188.479 11.36C189.172 11.0533 189.992 10.9 190.939 10.9C191.885 10.9 192.712 11.0467 193.419 11.34C194.125 11.6333 194.659 11.9933 195.019 12.42C195.392 12.8333 195.579 13.2133 195.579 13.56C195.579 13.68 195.532 13.7867 195.439 13.88C195.359 13.9733 195.259 14.02 195.139 14.02H193.059C192.952 14.02 192.852 13.9867 192.759 13.92C192.585 13.8267 192.432 13.7267 192.299 13.62C192.072 13.4467 191.859 13.3133 191.659 13.22C191.459 13.1267 191.212 13.08 190.919 13.08C190.572 13.08 190.292 13.16 190.079 13.32C189.879 13.48 189.779 13.6867 189.779 13.94C189.779 14.14 189.832 14.3067 189.939 14.44C190.059 14.5733 190.299 14.7067 190.659 14.84C191.032 14.96 191.579 15.0867 192.299 15.22C193.592 15.4467 194.532 15.8467 195.119 16.42C195.719 16.9933 196.019 17.6667 196.019 18.44C196.019 19.4267 195.579 20.22 194.699 20.82C193.819 21.4067 192.592 21.7 191.019 21.7Z" fill="#0B132A"/>
<path d="M33.0075 0H7.99554C7.69659 0 7.419 0.141654 7.2624 0.37345L0.123267 10.8558C-0.0689133 11.1391 -0.0333244 11.5061 0.20868 11.7572L19.8538 32.6962C20.1954 33.0568 20.8076 33.0568 21.1492 32.6962L40.7943 11.7572C41.0363 11.5061 41.0648 11.1391 40.8797 10.8558L33.7405 0.37345C33.584 0.141654 33.3064 0 33.0075 0ZM32.0394 2.31797L37.328 10.3021H31.4202L27.3773 2.31797H32.0394ZM24.5586 2.31797L28.6015 10.3021H12.3943L16.4444 2.31797H24.5586ZM8.96356 2.31797H13.6257L9.5828 10.3021H3.67504L8.96356 2.31797ZM4.35835 12.3625H9.55437L15.3766 24.725L4.35835 12.3625ZM12.3303 12.3625H28.6656L20.5015 29.3481L12.3303 12.3625ZM25.6263 24.725L31.4486 12.3625H36.6446L25.6263 24.725Z" fill="#0065F1"/>
</svg>
